<?xml version="1.0" encoding="UTF-8"?>
<!-- Generated by Pixelmator Pro 3.6.5 -->
<svg width="186" height="186" viewBox="0 0 186 186" xmlns="http://www.w3.org/2000/svg">
    <path id="Path" fill="#ffffff" stroke="none" d="M 165.300003 185.600006 L 24.6 185.600006 C 11.1 185.600006 0.1 174.600006 0.1 161.100006 L 0.1 24.5 C 0.1 11 11.1 0 24.6 0 L 161.199997 0 C 174.699997 0 185.699997 11 185.699997 24.5 L 185.699997 165.199997 C 185.699997 176.600006 176.5 185.600006 165.300003 185.600006 L 165.300003 185.600006 L 165.300003 185.600006 Z"/>
    <path id="path1" fill="#00969f" stroke="none" d="M 154.600006 171.899994 L 31.200001 171.899994 C 21.6 171.899994 13.8 164.100006 13.8 154.5 L 13.8 31.100006 C 13.8 21.5 21.6 13.699997 31.200001 13.699997 L 154.600006 13.699997 C 164.199997 13.699997 172 21.5 172 31.100006 L 172 154.5 C 172 164.199997 164.199997 171.899994 154.600006 171.899994 Z"/>
    <path id="path2" fill="#ffffff" stroke="none" d="M 64 112.900002 C 59.099998 86 51 55.899994 51 55.899994 L 30.1 55.899994 C 29.494749 55.905426 29.005428 56.394745 29 57 L 29 130 C 29 130.600006 29.5 131 30 131 L 41.900002 131 C 42.5 131 42.900002 130.5 42.900002 130 L 42.900002 86 L 42.099998 70.199997 L 56.5 131.100006 L 71.400002 131.100006 L 85.800003 70.199997 L 85 86 L 85 130 C 85 130.600006 85.5 131 86 131 L 97.900002 131 C 98.5 131 98.900002 130.5 98.900002 130 L 98.900002 57 C 98.894569 56.394745 98.405251 55.905426 97.800003 55.899994 L 77.099998 55.899994 C 77.099998 55.899994 69 87 64 112.900002 Z"/>
    <g id="layer1-copy">
        <g id="g36">
            <path id="path38" fill="#ffffff" stroke="none" d="M 162.381607 163.953125 C 168.031586 162.064041 161.142746 164.356735 162.378189 163.950745 Z M 116.402657 130.58139 C 116.063545 130.209091 116.014542 129.432831 116.014542 124.528931 C 116.014542 119.37796 116.059128 118.872253 116.44281 118.517311 C 116.819695 118.17598 117.649338 118.129013 123.3507 118.129013 L 129.830673 118.129013 L 129.830673 96.218666 L 129.830673 74.308662 L 128.249481 74.442406 C 125.117706 74.718735 117.52037 75.265282 116.800972 75.267662 C 116.397209 75.268684 115.83963 75.088997 115.563133 74.859291 C 115.110374 74.491409 115.02343 74.02314 114.693336 70.173187 C 114.492729 67.821625 114.390129 65.648056 114.465843 65.343811 C 114.644325 64.620987 115.099312 64.460358 120.113777 63.318596 C 125.108177 62.183319 128.70343 61.166466 130.448151 60.394295 C 131.844223 59.776619 133.797363 57.936554 134.271576 56.791748 L 134.572556 56.064499 L 139.695923 56.064499 L 144.819305 56.064499 L 144.819305 87.093864 L 144.819305 118.123222 L 150.86113 118.123222 C 155.247925 118.123222 156.979706 118.190269 157.183716 118.404327 C 157.384491 118.60511 157.46463 120.284554 157.46463 124.476181 C 157.46463 129.428406 157.420044 130.320709 157.096771 130.635498 C 156.76889 130.963226 154.601181 131.003372 136.76001 131.003372 C 117.711952 131.003372 116.773239 130.983643 116.403511 130.575256 Z"/>
        </g>
    </g>
</svg>
